Coordinates
version=1
nRows=15
nColumns=46
inDegrees=yes

Units are S.I. units (second, meters, Newtons, ...)
Angles are in degrees.

endheader
time	pelvis_tilt	pelvis_list	pelvis_rotation	pelvis_tx	pelvis_ty	pelvis_tz	bb_angle	bb_tx	bb_ty	bb_tz	hip_flexion_r	hip_adduction_r	hip_rotation_r	knee_angle_r	knee_angle_r_beta	ankle_angle_r	subtalar_angle_r	mtp_angle_r	crank_angle_r	hip_flexion_l	hip_adduction_l	hip_rotation_l	knee_angle_l	knee_angle_l_beta	ankle_angle_l	subtalar_angle_l	mtp_angle_l	crank_angle_l	lumbar_extension	lumbar_bending	lumbar_rotation	arm_flex_r	arm_add_r	arm_rot_r	elbow_flex_r	pro_sup_r	wrist_flex_r	wrist_dev_r	arm_flex_l	arm_add_l	arm_rot_l	elbow_flex_l	pro_sup_l	wrist_flex_l	wrist_dev_l
      0.00500000	    -15.42956212	      1.32272982	      2.70287771	      0.12259215	      1.04092556	     -0.22827076	      0.00000000	      0.50000000	      0.00000000	      0.25000000	     51.95198479	     -6.81149707	     -0.06636312	     78.26059781	      1.36590511	     15.43886946	     -5.30594210	      0.00000000	      0.00000000	     79.54089620	     -6.60947639	     -3.10019277	     72.56663537	      1.26652671	     -3.56257051	     -3.84248147	      0.00000000	      0.00000000	    -58.59674441	      0.01938957	     -2.53621805	     89.69593406	    -13.02456404	     25.12692264	     52.18926307	     25.25636842	      0.00000000	      0.00000000	     89.74162203	    -19.23575333	     29.25282126	     56.58747187	     25.36622832	      0.00000000	      0.00000000
      0.01000000	    -15.43951596	      1.27228329	      2.73765329	      0.12252637	      1.04090915	     -0.22827237	      0.00000000	      0.50000000	      0.00000000	      0.25000000	     51.93670195	     -6.79570346	     -0.14333191	     78.23666062	      1.36548732	     15.43600033	     -5.36557951	      0.00000000	      0.00000000	     79.58247705	     -6.58644503	     -3.02709707	     72.58331555	      1.26681784	     -3.55103811	     -3.81709006	      0.00000000	      0.00000000	    -58.57703078	      0.08559565	     -2.47546323	     89.69566500	    -13.01351272	     24.92550309	     51.74984229	     27.66710184	      0.00000000	      0.00000000	     89.74232907	    -19.14580340	     29.12656114	     56.07937398	     27.63616438	      0.00000000	      0.00000000
      0.01500000	    -15.45030221	      1.31173787	      2.73228987	      0.12247141	      1.04091671	     -0.22824996	      0.00000000	      0.50000000	      0.00000000	      0.25000000	     51.94604067	     -6.82230603	     -0.11452421	     78.22011875	      1.36519861	     15.45516966	     -5.34387723	      0.00000000	      0.00000000	     79.58252588	     -6.57907259	     -3.07372990	     72.57292212	      1.26663644	     -3.54718263	     -3.85146431	      0.00000000	      0.00000000	    -58.56857643	      0.07883822	     -2.46784002	     89.69605952	    -12.97258608	     24.82451262	     51.46332637	     29.10439515	      0.00000000	      0.00000000	     89.74173152	    -19.08939428	     28.97523462	     55.80041590	     28.94900770	      0.00000000	      0.00000000
      0.02000000	    -15.53708176	      1.34194399	      2.75069456	      0.12240846	      1.04086951	     -0.22814868	      0.00000000	      0.50000000	      0.00000000	      0.25000000	     52.00631929	     -6.82055027	     -0.02332272	     78.13580862	      1.36372712	     15.48450651	     -5.35396564	      0.00000000	      0.00000000	     79.66964805	     -6.53741761	     -3.04014413	     72.56695973	      1.26653238	     -3.57208801	     -3.78396201	      0.00000000	      0.00000000	    -58.43514834	      0.05519676	     -2.54820752	     89.69493806	    -12.91647780	     24.84832105	     51.19280470	     29.69322704	      0.00000000	      0.00000000	     89.74326579	    -18.89632497	     28.83692933	     55.45618768	     29.37947720	      0.00000000	      0.00000000
      0.02500000	    -15.48239565	      1.30223662	      2.71411776	      0.12230765	      1.04096065	     -0.22815777	      0.00000000	      0.50000000	      0.00000000	      0.25000000	     51.94630460	     -6.78049651	     -0.05168247	     78.16457094	      1.36422912	     15.57815715	     -5.33779733	      0.00000000	      0.00000000	     79.65096355	     -6.60148088	     -3.03751181	     72.64520887	      1.26789808	     -3.50598663	     -3.93682759	      0.00000000	      0.00000000	    -58.50811017	      0.04780562	     -2.44409515	     89.69496681	    -12.91677972	     24.68690052	     51.25625579	     29.78780941	      0.00000000	      0.00000000	     89.74080049	    -18.77099549	     28.59519151	     55.52911323	     29.42160820	      0.00000000	      0.00000000
      0.03000000	    -15.41809299	      1.27520745	      2.71197184	      0.12230072	      1.04114931	     -0.22808047	      0.00000000	      0.50000000	      0.00000000	      0.25000000	     51.83980934	     -6.75479967	     -0.09877638	     78.09996834	      1.36310159	     15.56457701	     -5.38152881	      0.00000000	      0.00000000	     79.58539461	     -6.62439971	     -3.02900642	     72.64535302	      1.26790060	     -3.47712176	     -3.96088406	      0.00000000	      0.00000000	    -58.62623710	      0.06546621	     -2.40186504	     89.69602514	    -12.91031735	     24.44484414	     51.24478187	     30.93713516	      0.00000000	      0.00000000	     89.73879177	    -18.67826751	     28.31817492	     55.44421916	     30.53993428	      0.00000000	      0.00000000
      0.03500000	    -15.55866543	      1.31351062	      2.71565607	      0.12217905	      1.04089090	     -0.22807269	      0.00000000	      0.50000000	      0.00000000	      0.25000000	     52.00862661	     -6.78841112	     -0.05741920	     78.11547459	      1.36337223	     15.61906661	     -5.34106221	      0.00000000	      0.00000000	     79.73837889	     -6.59169584	     -3.03979456	     72.63162591	      1.26766101	     -3.49246868	     -3.89705519	      0.00000000	      0.00000000	    -58.40981606	      0.02135261	     -2.40017589	     89.69396904	    -12.99970891	     24.62815246	     50.88938817	     31.67039620	      0.00000000	      0.00000000	     89.73939167	    -18.51511384	     28.62436451	     54.98695357	     31.18532018	      0.00000000	      0.00000000
      0.04000000	    -15.56126093	      1.29887391	      2.70106802	      0.12214603	      1.04088069	     -0.22805153	      0.00000000	      0.50000000	      0.00000000	      0.25000000	     51.99663589	     -6.76481317	     -0.04993312	     78.09263026	      1.36297352	     15.65615240	     -5.29426759	      0.00000000	      0.00000000	     79.75524350	     -6.60878079	     -3.01826252	     72.65515756	      1.26807172	     -3.47140800	     -3.89999528	      0.00000000	      0.00000000	    -58.43797927	      0.02672569	     -2.37193053	     89.69235368	    -13.11060256	     25.09908256	     52.13037451	     25.59437611	      0.00000000	      0.00000000	     89.73896358	    -18.47284598	     28.58528078	     56.47362513	     23.00301358	      0.00000000	      0.00000000
      0.04500000	    -15.57554719	      1.32526404	      2.69831505	      0.12211387	      1.04087737	     -0.22801890	      0.00000000	      0.50000000	      0.00000000	      0.25000000	     51.99919931	     -6.77954572	     -0.02564359	     78.06597328	      1.36250827	     15.70573901	     -5.26609684	      0.00000000	      0.00000000	     79.76453652	     -6.60364506	     -3.04447066	     72.65420004	      1.26805501	     -3.46598117	     -3.92026685	      0.00000000	      0.00000000	    -58.42372701	      0.01628900	     -2.42509139	     89.69271608	    -12.96074358	     24.76897037	     51.39772433	     29.26671862	      0.00000000	      0.00000000	     89.73840050	    -18.47412294	     28.37295208	     55.62506302	     27.49824621	      0.00000000	      0.00000000
      0.05000000	    -15.59283230	      1.32138027	      2.68918029	      0.12210012	      1.04084723	     -0.22797736	      0.00000000	      0.50000000	      0.00000000	      0.25000000	     52.00117330	     -6.76982372	     -0.03830970	     78.04425007	      1.36212913	     15.75455468	     -5.27978210	      0.00000000	      0.00000000	     79.79123265	     -6.62502630	     -3.05042937	     72.66538731	      1.26825026	     -3.46399424	     -3.89493551	      0.00000000	      0.00000000	    -58.38594334	      0.08077864	     -2.33728637	     89.69444087	    -12.93417854	     24.60355992	     51.08564251	     31.08783518	      0.00000000	      0.00000000	     89.73601213	    -18.33685578	     28.12976102	     54.98984657	     29.60159861	      0.00000000	      0.00000000
      0.05500000	    -15.58376972	      1.34598326	      2.69285376	      0.12201573	      1.04081911	     -0.22793429	      0.00000000	      0.50000000	      0.00000000	      0.25000000	     52.00283286	     -6.78593248	     -0.00881663	     78.03617411	      1.36198817	     15.72614333	     -5.25963363	      0.00000000	      0.00000000	     79.79200689	     -6.60672839	     -3.04417966	     72.68431519	      1.26858061	     -3.42430580	     -3.87864966	      0.00000000	      0.00000000	    -58.41515631	      0.04841469	     -2.27109766	     89.69339377	    -13.06479633	     24.56125524	     51.05602674	     31.71490114	      0.00000000	      0.00000000	     89.73301489	    -18.07160142	     28.27375108	     54.87405239	     30.30976019	      0.00000000	      0.00000000
      0.06000000	    -15.61009054	      1.33614625	      2.67603417	      0.12205002	      1.04080970	     -0.22786459	      0.00000000	      0.50000000	      0.00000000	      0.25000000	     52.01445148	     -6.75728659	     -0.00932078	     78.01565050	      1.36162997	     15.74991626	     -5.27502734	      0.00000000	      0.00000000	     79.81971122	     -6.63632858	     -3.04837129	     72.68758225	      1.26863764	     -3.40125115	     -3.86153532	      0.00000000	      0.00000000	    -58.40307587	      0.03362425	     -2.28690145	     89.69230835	    -13.00592439	     24.47755299	     50.95573177	     32.32461327	      0.00000000	      0.00000000	     89.73467547	    -18.04962770	     27.70379584	     54.65152192	     31.06057011	      0.00000000	      0.00000000
      0.06500000	    -15.55667052	      1.40179510	      2.76279503	      0.12212705	      1.04117960	     -0.22734761	      0.00000000	      0.50000000	      0.00000000	      0.25000000	     51.88249801	     -6.77550895	      0.00000553	     77.93115606	      1.36015526	     15.78981516	     -5.48410172	      0.00000000	      0.00000000	     79.70323399	     -6.60687396	     -3.12122200	     72.59991243	      1.26710751	     -3.46970484	     -3.80512586	      0.00000000	      0.00000000	    -58.59424854	     -0.00137423	     -2.36810337	     89.68314383	    -13.02997530	     24.10411205	     51.28945697	     32.75939049	      0.00000000	      0.00000000	     89.73391272	    -17.96830987	     27.23336272	     54.99454543	     31.52554856	      0.00000000	      0.00000000
      0.07000000	    -15.47540063	      1.54733919	      2.69627290	      0.12214036	      1.04140775	     -0.22730167	      0.00000000	      0.50000000	      0.00000000	      0.25000000	     51.80887349	     -6.84256224	      0.15266292	     77.91208725	      1.35982245	     15.76939327	     -5.41052063	      0.00000000	      0.00000000	     79.55327478	     -6.60906945	     -3.29185026	     72.57308472	      1.26663928	     -3.57284438	     -4.16408528	      0.00000000	      0.00000000	    -58.71688113	     -0.11878528	     -2.50048960	     89.69254860	    -12.78213639	     23.81247323	     50.67680067	     35.14644349	      0.00000000	      0.00000000	     89.73227414	    -18.01742939	     26.94494856	     54.51459653	     34.33858380	      0.00000000	      0.00000000
      0.07500000	    -15.58984330	      1.43731557	      2.77023207	      0.12207334	      1.04111492	     -0.22740091	      0.00000000	      0.50000000	      0.00000000	      0.25000000	     51.91854652	     -6.83074558	      0.01046562	     77.91610537	      1.35989258	     15.77055353	     -5.40918230	      0.00000000	      0.00000000	     79.74935526	     -6.58181678	     -3.15999255	     72.62392745	      1.26752665	     -3.45460092	     -3.84474245	      0.00000000	      0.00000000	    -58.55971062	     -0.02674840	     -2.28844025	     89.68564139	    -13.25512601	     24.76031845	     52.33052627	     26.31274605	      0.00000000	      0.00000000	     89.72897411	    -17.65370790	     27.87768553	     56.18157486	     23.71568993	      0.00000000	      0.00000000
